<svg width="294" height="75" viewBox="0 0 294 75" fill="none" xmlns="http://www.w3.org/2000/svg">
<path d="M278.816 26.8038H291.296V29.5323H278.816V61.3839C278.816 64.3711 279.104 66.4949 279.639 67.8097C279.917 68.4171 280.324 68.8579 280.861 69.1534C281.407 69.454 282.118 69.6202 283.02 69.6202C284.742 69.6202 286.27 68.7704 287.609 66.9445L287.615 66.9357L287.872 66.5851C289.133 64.7878 289.984 62.3701 290.397 59.3009L290.462 58.8136L290.95 58.8712L292.582 59.0636L293.078 59.1222L293.021 59.6173C292.5 64.1067 291.063 67.7315 288.676 70.4503L288.671 70.4542C286.231 73.1653 282.253 74.46 276.876 74.4601C271.508 74.4601 267.321 73.3948 264.384 71.1925C261.383 68.9416 259.96 64.9042 259.96 59.2716V29.5323H254.68V26.8038H259.96V14.5284L260.34 14.4347L278.196 10.0187L278.816 9.86536V26.8038Z" fill="#F9CCC4" stroke="black"/>
<path d="M173.498 25.844C176.607 25.844 179.169 26.7399 181.134 28.5696H181.133C183.179 30.3498 184.173 32.8985 184.173 36.136C184.173 39.082 183.541 41.463 182.217 43.22L181.943 43.5627C180.41 45.3748 178.07 46.2356 175.034 46.2356C172.032 46.2356 169.721 45.2275 168.199 43.1516L168.192 43.1428C166.722 41.0436 166.598 38.2052 167.643 34.7434L167.75 34.3879H171.261C171.572 33.7163 171.768 33.1392 171.86 32.6526C171.965 32.0984 171.93 31.6949 171.811 31.4065C171.596 30.8853 170.98 30.4925 169.562 30.4924C167.583 30.4924 165.749 31.6854 164.084 34.3079L163.753 34.8518C162.014 37.8341 161.133 41.392 161.133 45.5442V70.7717H167.95V73.5002H136.998V70.7717H142.278V29.5325H136.998V26.804H161.133V33.5901C162.071 31.5541 163.403 29.895 165.139 28.6282C167.594 26.7731 170.385 25.844 173.498 25.844Z" fill="#F9CCC4" stroke="black"/>
<path d="M30.5957 0.5V32.5195C31.7141 30.6063 33.1006 29.0915 34.7637 27.9912C36.9393 26.5519 39.5521 25.8438 42.5762 25.8438C48.6817 25.8438 53.3336 27.8841 56.4395 32.0195C59.5251 36.1283 61.0283 42.2319 61.0283 50.248C61.0283 58.4282 59.3561 64.5557 55.9141 68.5273L55.9131 68.5264C52.5267 72.508 47.4405 74.46 40.752 74.46C37.385 74.46 34.7246 73.9442 32.8242 72.8584L32.8174 72.8545C31.4971 72.0721 30.4863 70.9299 29.7715 69.4551L29.3447 73.0586L29.292 73.5H6.45996V70.7725H11.7402V3.22754H6.45996V0.5H30.5957ZM37.2959 30.9717C35.6822 30.9717 34.1524 31.964 32.7256 34.1973C31.3239 36.3912 30.5957 39.4526 30.5957 43.4316V61.2881C30.5957 63.9743 31.1264 66.2206 32.1621 68.0488C33.2333 69.8285 34.6782 70.6758 36.5283 70.6758C37.4605 70.6757 38.2212 70.3705 38.8428 69.7627C39.4768 69.1427 39.9948 68.1787 40.3652 66.8203L40.502 66.2812C41.1612 63.4592 41.5 58.7686 41.5 52.168V47.1758C41.5 40.5749 41.1774 36.2279 40.5596 34.0654L40.5586 34.0615C40.2538 32.9644 39.8183 32.1953 39.2852 31.7031C38.7624 31.2206 38.1109 30.9717 37.2959 30.9717Z" fill="#F9CCC4" stroke="black"/>
<path d="M97.6786 25.844C90.2743 25.844 84.744 28.6646 81.1522 33.385C77.5733 38.0885 75.9599 44.6229 76.2509 51.9954L76.2694 52.4758H103.318C103.276 58.4688 102.482 62.9469 100.975 65.9602C100.214 67.4827 99.1828 68.6053 97.8856 69.3508C96.5854 70.0981 94.9872 70.4836 93.0702 70.4836C89.4515 70.4836 86.4978 69.5187 84.1708 67.6204C81.8388 65.718 80.0914 62.8417 78.9589 58.9407L78.8348 58.5139L78.3964 58.5872L76.6678 58.8752L76.1268 58.9651L76.2675 59.4954C77.5057 64.1878 79.7646 67.8688 83.0594 70.5061L83.0585 70.5071C86.3219 73.1711 91.1931 74.4602 97.5829 74.4602C105.919 74.4601 112.277 72.3265 116.562 67.9749L116.568 67.969C120.775 63.5645 122.85 57.5073 122.85 49.8635C122.85 42.1416 120.51 36.1652 115.767 32.0159L115.766 32.0139L115.313 31.6331C110.609 27.7649 104.719 25.844 97.6786 25.844ZM98.4462 28.6682C99.2395 28.6682 99.9157 28.892 100.495 29.3333C101.081 29.7797 101.596 30.4702 102.02 31.4407C102.808 33.3251 103.226 36.6886 103.226 41.6077V49.3635H94.3387V41.6077C94.3388 36.4171 94.6623 32.9774 95.2714 31.2112L95.2772 31.1917C95.5443 30.3013 95.9454 29.6806 96.452 29.2805C96.9552 28.8833 97.6077 28.6683 98.4462 28.6682Z" fill="#F9CCC4" stroke="black"/>
<path d="M217.961 25.844C210.557 25.844 205.026 28.6646 201.435 33.385C197.856 38.0885 196.242 44.6229 196.533 51.9954L196.552 52.4758H223.601C223.559 58.4688 222.765 62.9469 221.258 65.9602C220.497 67.4827 219.465 68.6053 218.168 69.3508C216.868 70.0981 215.27 70.4836 213.353 70.4836C209.734 70.4836 206.78 69.5187 204.453 67.6204C202.121 65.718 200.374 62.8417 199.241 58.9407L199.117 58.5139L198.679 58.5872L196.95 58.8752L196.409 58.9651L196.55 59.4954C197.788 64.1878 200.047 67.8688 203.342 70.5061L203.341 70.5071C206.604 73.1711 211.476 74.4602 217.865 74.4602C226.201 74.4601 232.559 72.3265 236.845 67.9749L236.851 67.969C241.058 63.5645 243.133 57.5073 243.133 49.8635C243.133 42.1416 240.792 36.1652 236.05 32.0159L236.048 32.0139L235.596 31.6331C230.891 27.7649 225.001 25.844 217.961 25.844ZM218.729 28.6682C219.522 28.6682 220.198 28.892 220.777 29.3333C221.363 29.7797 221.878 30.4702 222.303 31.4407C223.091 33.3251 223.509 36.6886 223.509 41.6077V49.3635H214.621V41.6077C214.621 36.4171 214.945 32.9774 215.554 31.2112L215.56 31.1917C215.827 30.3013 216.228 29.6806 216.734 29.2805C217.238 28.8833 217.89 28.6683 218.729 28.6682Z" fill="#F9CCC4" stroke="black"/>
<path d="M272.856 26.8038H285.336V29.5323H272.856V61.3839C272.856 64.3711 273.144 66.4949 273.679 67.8097C273.957 68.4171 274.364 68.8579 274.901 69.1534C275.447 69.454 276.159 69.6202 277.06 69.6202C278.782 69.6202 280.31 68.7704 281.649 66.9445L281.656 66.9357L281.912 66.5851C283.173 64.7878 284.024 62.3701 284.437 59.3009L284.502 58.8136L284.99 58.8712L286.622 59.0636L287.118 59.1222L287.061 59.6173C286.54 64.1067 285.103 67.7315 282.716 70.4503L282.711 70.4542C280.271 73.1653 276.293 74.46 270.916 74.4601C265.548 74.4601 261.361 73.3948 258.424 71.1925C255.423 68.9416 254 64.9042 254 59.2716V29.5323H248.72V26.8038H254V14.5284L254.38 14.4347L272.236 10.0187L272.856 9.86536V26.8038Z" fill="white" stroke="black"/>
<path d="M211.841 25.844C204.437 25.844 198.906 28.6646 195.315 33.385C191.736 38.0885 190.122 44.6229 190.413 51.9954L190.432 52.4758H217.481C217.439 58.4688 216.645 62.9469 215.138 65.9602C214.377 67.4827 213.345 68.6053 212.048 69.3508C210.748 70.0981 209.15 70.4836 207.233 70.4836C203.614 70.4836 200.66 69.5187 198.333 67.6204C196.001 65.718 194.254 62.8417 193.121 58.9407L192.997 58.5139L192.559 58.5872L190.83 58.8752L190.289 58.9651L190.43 59.4954C191.668 64.1878 193.927 67.8688 197.222 70.5061L197.221 70.5071C200.484 73.1711 205.356 74.4602 211.745 74.4602C220.081 74.4601 226.439 72.3265 230.725 67.9749L230.731 67.969C234.938 63.5645 237.013 57.5073 237.013 49.8635C237.013 42.1416 234.672 36.1652 229.93 32.0159L229.928 32.0139L229.476 31.6331C224.771 27.7649 218.881 25.844 211.841 25.844ZM212.609 28.6682C213.402 28.6682 214.078 28.892 214.657 29.3333C215.243 29.7797 215.758 30.4702 216.183 31.4407C216.971 33.3251 217.389 36.6886 217.389 41.6077V49.3635H208.501V41.6077C208.501 36.4171 208.825 32.9774 209.434 31.2112L209.44 31.1917C209.707 30.3013 210.108 29.6806 210.615 29.2805C211.118 28.8833 211.77 28.6683 212.609 28.6682Z" fill="white" stroke="black"/>
<path d="M167.538 25.844C170.647 25.844 173.209 26.7399 175.174 28.5696H175.173C177.219 30.3498 178.213 32.8985 178.213 36.136C178.213 39.082 177.581 41.463 176.257 43.22L175.983 43.5627C174.45 45.3748 172.11 46.2356 169.074 46.2356C166.072 46.2356 163.761 45.2275 162.239 43.1516L162.232 43.1428C160.762 41.0436 160.638 38.2052 161.683 34.7434L161.791 34.3879H165.301C165.612 33.7163 165.808 33.1392 165.9 32.6526C166.005 32.0984 165.97 31.6949 165.851 31.4065C165.636 30.8853 165.02 30.4925 163.602 30.4924C161.623 30.4924 159.789 31.6854 158.125 34.3079L157.793 34.8518C156.054 37.8341 155.173 41.392 155.173 45.5442V70.7717H161.99V73.5002H131.038V70.7717H136.318V29.5325H131.038V26.804H155.173V33.5901C156.111 31.5541 157.443 29.895 159.179 28.6282C161.634 26.7731 164.425 25.844 167.538 25.844Z" fill="white" stroke="black"/>
<path d="M90.6786 25.844C83.2743 25.844 77.744 28.6646 74.1522 33.385C70.5733 38.0885 68.9599 44.6229 69.2509 51.9954L69.2694 52.4758H96.3182C96.2765 58.4688 95.482 62.9469 93.9755 65.9602C93.2142 67.4827 92.1828 68.6053 90.8856 69.3508C89.5854 70.0981 87.9872 70.4836 86.0702 70.4836C82.4515 70.4836 79.4978 69.5187 77.1708 67.6204C74.8388 65.718 73.0914 62.8417 71.9589 58.9407L71.8348 58.5139L71.3964 58.5872L69.6678 58.8752L69.1268 58.9651L69.2675 59.4954C70.5057 64.1878 72.7646 67.8688 76.0594 70.5061L76.0585 70.5071C79.3219 73.1711 84.1931 74.4602 90.5829 74.4602C98.9189 74.4601 105.277 72.3265 109.562 67.9749L109.568 67.969C113.775 63.5645 115.85 57.5073 115.85 49.8635C115.85 42.1416 113.51 36.1652 108.767 32.0159L108.766 32.0139L108.313 31.6331C103.609 27.7649 97.7188 25.844 90.6786 25.844ZM91.4462 28.6682C92.2395 28.6682 92.9157 28.892 93.495 29.3333C94.081 29.7797 94.5958 30.4702 95.0204 31.4407C95.8081 33.3251 96.2264 36.6886 96.2264 41.6077V49.3635H87.3387V41.6077C87.3388 36.4171 87.6623 32.9774 88.2714 31.2112L88.2772 31.1917C88.5443 30.3013 88.9454 29.6806 89.452 29.2805C89.9552 28.8833 90.6077 28.6683 91.4462 28.6682Z" fill="white" stroke="black"/>
<path d="M24.6357 0.5V32.5195C25.7541 30.6063 27.1407 29.0915 28.8037 27.9912C30.9794 26.5519 33.5921 25.8438 36.6162 25.8438C42.7217 25.8438 47.3736 27.8841 50.4795 32.0195C53.5652 36.1283 55.0684 42.2319 55.0684 50.248C55.0684 58.4282 53.3961 64.5557 49.9541 68.5273L49.9531 68.5264C46.5668 72.508 41.4805 74.46 34.792 74.46C31.4251 74.46 28.7646 73.9442 26.8643 72.8584L26.8574 72.8545C25.5371 72.0721 24.5264 70.9299 23.8115 69.4551L23.3848 73.0586L23.332 73.5H0.5V70.7725H5.78027V3.22754H0.5V0.5H24.6357ZM31.3359 30.9717C29.7223 30.9717 28.1924 31.964 26.7656 34.1973C25.3639 36.3912 24.6358 39.4526 24.6357 43.4316V61.2881C24.6358 63.9743 25.1664 66.2206 26.2021 68.0488C27.2734 69.8285 28.7183 70.6758 30.5684 70.6758C31.5006 70.6757 32.2612 70.3705 32.8828 69.7627C33.5169 69.1427 34.0348 68.1787 34.4053 66.8203L34.542 66.2812C35.2012 63.4592 35.54 58.7686 35.54 52.168V47.1758C35.54 40.5749 35.2174 36.2279 34.5996 34.0654L34.5986 34.0615C34.2938 32.9644 33.8584 32.1953 33.3252 31.7031C32.8025 31.2206 32.1509 30.9717 31.3359 30.9717Z" fill="white" stroke="black"/>
</svg>
