<svg width="672" height="236" viewBox="0 0 672 236" fill="none" xmlns="http://www.w3.org/2000/svg">
<path d="M559.617 183.019V234.308H547.495V183.019H559.617Z" fill="#1CB0A8" fill-opacity="0.501961" stroke="black" stroke-width="2"/>
<path d="M516.088 183.019C520.066 183.019 523.535 183.74 526.459 185.226H526.458C529.386 186.679 531.655 188.709 533.228 191.322C534.798 193.931 535.572 196.901 535.572 200.2C535.572 203.541 534.799 206.485 533.216 208.993C531.635 211.5 529.355 213.415 526.423 214.75L526.424 214.751C523.509 216.089 520.053 216.738 516.088 216.738H508.049V234.308H495.894V183.019H516.088ZM508.049 206.817H516.088C517.923 206.817 519.325 206.517 520.354 205.987L520.547 205.88C521.495 205.329 522.168 204.61 522.604 203.721C523.093 202.723 523.348 201.579 523.348 200.268C523.348 198.933 523.092 197.707 522.588 196.579C522.108 195.504 521.353 194.637 520.294 193.971C519.282 193.333 517.904 192.974 516.088 192.974H508.049V206.817Z" fill="#1CB0A8" fill-opacity="0.501961" stroke="black" stroke-width="2"/>
<path d="M468.362 183.019L468.605 183.669L487.021 232.957L487.525 234.308H474.528L474.302 233.62L471.109 223.915H454.843L451.659 233.619L451.433 234.308H438.472L438.973 232.959L457.287 183.67L457.529 183.019H468.362ZM458.109 213.959H467.835L462.966 199.155L458.109 213.959Z" fill="#1CB0A8" fill-opacity="0.501961" stroke="black" stroke-width="2"/>
<path d="M406.664 180.311V234.308H394.881V180.311H406.664Z" fill="#1CB0A8" fill-opacity="0.501961" stroke="black" stroke-width="2"/>
<path d="M360.749 195.679V220.41C360.749 221.416 360.864 222.211 361.066 222.822C361.295 223.448 361.595 223.921 361.947 224.272C362.309 224.634 362.723 224.889 363.201 225.043C363.745 225.21 364.363 225.299 365.065 225.299C366.951 225.299 368.303 224.917 369.227 224.264L369.235 224.259L369.417 224.128C370.055 223.648 370.56 223.06 370.937 222.352V195.679H382.686V234.307H371.575L371.514 233.373L371.411 231.82C370.596 232.525 369.69 233.129 368.694 233.627L368.684 233.63C366.806 234.545 364.63 234.984 362.187 234.984C360.311 234.984 358.557 234.723 356.933 234.19L356.915 234.184C355.288 233.617 353.871 232.737 352.678 231.544L352.671 231.536L352.663 231.528C351.488 230.303 350.586 228.763 349.938 226.939L349.936 226.932L349.933 226.924C349.302 225.056 349 222.855 349 220.342V195.679H360.749Z" fill="#1CB0A8" fill-opacity="0.501961" stroke="black" stroke-width="2"/>
<path d="M335.196 179.6C336.139 179.6 337.052 179.671 337.935 179.812L337.936 179.812C338.8 179.928 339.642 180.08 340.462 180.268L341.252 180.448L341.24 181.257L341.138 188.603L341.121 189.881L339.884 189.556C339.512 189.458 339.114 189.388 338.69 189.348C338.256 189.306 337.735 189.284 337.126 189.284C336.065 189.284 335.218 189.468 334.55 189.793L334.54 189.798C333.911 190.095 333.448 190.526 333.124 191.107C332.797 191.692 332.608 192.451 332.608 193.43V195.68H339.919V204.585H332.608V234.308H320.791V204.585H315.34V195.68H320.791V193.43C320.791 190.526 321.357 188.008 322.547 185.926L322.549 185.923L322.781 185.537C323.968 183.637 325.584 182.182 327.614 181.19C329.787 180.117 332.325 179.6 335.196 179.6Z" fill="#1CB0A8" fill-opacity="0.501961" stroke="black" stroke-width="2"/>
<path d="M308.764 183.019V192.974H293.599V234.308H281.477V192.974H266.549V183.019H308.764Z" fill="#1CB0A8" fill-opacity="0.501961" stroke="black" stroke-width="2"/>
<path d="M239.305 182.342C243.058 182.342 246.383 183.018 249.252 184.405C252.104 185.784 254.349 187.69 255.948 190.135L256.244 190.599C257.674 192.942 258.382 195.587 258.382 198.508V199.508H246.294V198.508C246.294 197.207 246.021 196.117 245.508 195.206L245.497 195.184C245.014 194.275 244.268 193.545 243.211 192.997L243.205 192.994C242.194 192.46 240.856 192.162 239.136 192.162C237.471 192.162 236.158 192.419 235.155 192.882L235.147 192.886L235.14 192.889C234.11 193.344 233.395 193.94 232.933 194.651L232.927 194.661C232.455 195.369 232.214 196.168 232.214 197.086C232.214 197.746 232.372 198.318 232.675 198.828C233.017 199.365 233.543 199.904 234.294 200.432C235.058 200.968 236.02 201.489 237.192 201.988C238.371 202.49 239.746 202.986 241.322 203.474L242.33 203.789C244.646 204.534 246.721 205.363 248.55 206.277L249.33 206.677C251.114 207.625 252.651 208.683 253.928 209.856C255.4 211.208 256.524 212.753 257.283 214.492C258.045 216.239 258.416 218.195 258.416 220.342C258.416 222.618 257.972 224.691 257.06 226.539C256.152 228.38 254.84 229.935 253.138 231.199C251.446 232.456 249.446 233.397 247.157 234.034C244.866 234.672 242.324 234.984 239.542 234.984C237.018 234.984 234.527 234.657 232.074 234.003L232.066 234.001C229.597 233.319 227.342 232.293 225.307 230.921L225.302 230.918C223.257 229.522 221.618 227.737 220.392 225.574C219.141 223.367 218.536 220.787 218.536 217.871V216.871H230.725V217.871C230.725 219.308 230.948 220.458 231.349 221.356C231.758 222.272 232.32 222.99 233.03 223.534L233.323 223.739C234.021 224.202 234.836 224.554 235.782 224.786L236.211 224.882C237.228 225.091 238.337 225.198 239.542 225.198C241.219 225.198 242.513 224.96 243.472 224.538L243.479 224.535L243.839 224.367C244.645 223.959 245.202 223.451 245.563 222.864L245.567 222.856L245.573 222.849C246.028 222.14 246.26 221.336 246.26 220.41C246.26 219.632 246.141 218.968 245.921 218.401L245.914 218.384L245.909 218.365C245.73 217.846 245.377 217.336 244.789 216.843L244.776 216.831C244.173 216.306 243.283 215.754 242.066 215.189C240.856 214.628 239.264 214.033 237.279 213.408L237.271 213.406C235.004 212.673 232.848 211.848 230.804 210.93L230.801 210.928C228.752 209.996 226.922 208.908 225.319 207.658L225.313 207.652L225.306 207.647C223.699 206.352 222.416 204.843 221.469 203.119L221.463 203.109C220.516 201.339 220.059 199.31 220.059 197.052C220.059 194.846 220.546 192.819 221.534 190.991C222.51 189.162 223.874 187.607 225.612 186.328C227.342 185.032 229.368 184.047 231.675 183.364H231.678L232.119 183.239C234.334 182.638 236.732 182.342 239.305 182.342Z" fill="#1CB0A8" fill-opacity="0.501961" stroke="black" stroke-width="2"/>
<path d="M210.403 183.019V192.974H187.519V203.093H207.018V212.812H187.519V224.386H210.437V234.308H175.363V183.019H210.403Z" fill="#1CB0A8" fill-opacity="0.501961" stroke="black" stroke-width="2"/>
<path d="M136.865 206.14H144.159C145.83 206.14 147.133 205.843 148.12 205.312C149.126 204.77 149.858 204.032 150.347 203.09L150.35 203.083L150.354 203.076C150.873 202.116 151.148 200.975 151.148 199.624C151.148 198.168 150.877 196.965 150.377 195.983C149.89 195.027 149.155 194.297 148.139 193.779C147.124 193.262 145.791 192.974 144.092 192.974H136.865V206.14ZM165.132 234.308H152.654L152.375 233.763L143.319 216.061H136.865V234.308H124.71V183.019H144.092C147.955 183.019 151.33 183.597 154.188 184.787H154.189C157.082 185.983 159.348 187.773 160.937 190.169C162.534 192.577 163.303 195.499 163.303 198.88C163.303 201.63 162.834 204.05 161.854 206.109L161.855 206.109C160.908 208.124 159.556 209.818 157.806 211.179L157.804 211.18C156.895 211.885 155.903 212.51 154.832 213.059L165.016 232.367L165.132 232.586V234.308Z" fill="#1CB0A8" fill-opacity="0.501961" stroke="black" stroke-width="2"/>
<path d="M553.908 179.419V230.708H541.786V179.419H553.908Z" fill="#1CB0A8" stroke="black" stroke-width="2"/>
<path d="M510.379 179.419C514.356 179.419 517.826 180.14 520.75 181.626H520.749C523.676 183.079 525.946 185.11 527.518 187.723C529.088 190.332 529.862 193.301 529.862 196.601C529.862 199.941 529.089 202.886 527.507 205.394C525.925 207.9 523.645 209.815 520.714 211.151L520.715 211.151C517.8 212.489 514.344 213.139 510.379 213.139H502.34V230.708H490.184V179.419H510.379ZM502.34 203.217H510.379C512.214 203.217 513.616 202.918 514.644 202.388L514.838 202.28C515.785 201.729 516.458 201.01 516.894 200.121C517.383 199.124 517.638 197.979 517.638 196.668C517.638 195.333 517.382 194.108 516.879 192.98C516.398 191.904 515.643 191.038 514.585 190.371C513.572 189.734 512.194 189.374 510.379 189.374H502.34V203.217Z" fill="#1CB0A8" stroke="black" stroke-width="2"/>
<path d="M462.652 179.419L462.896 180.069L481.312 229.358L481.816 230.708H468.818L468.592 230.021L465.4 220.316H449.133L445.949 230.02L445.724 230.708H432.762L433.263 229.359L451.577 180.07L451.819 179.419H462.652ZM452.4 210.359H462.125L457.256 195.556L452.4 210.359Z" fill="#1CB0A8" stroke="black" stroke-width="2"/>
<path d="M400.954 176.711V230.708H389.171V176.711H400.954Z" fill="#1CB0A8" stroke="black" stroke-width="2"/>
<path d="M355.04 192.08V216.81C355.04 217.816 355.155 218.612 355.356 219.222C355.585 219.849 355.886 220.321 356.237 220.672C356.599 221.035 357.014 221.289 357.492 221.443C358.035 221.611 358.654 221.7 359.355 221.7C361.241 221.7 362.593 221.317 363.517 220.665L363.525 220.66L363.708 220.528C364.346 220.049 364.851 219.46 365.227 218.753V192.08H376.976V230.708H365.866L365.804 229.773L365.702 228.22C364.886 228.925 363.98 229.529 362.984 230.027L362.974 230.031C361.096 230.945 358.921 231.384 356.477 231.384C354.601 231.384 352.847 231.124 351.223 230.59L351.206 230.585C349.578 230.017 348.161 229.137 346.968 227.944L346.961 227.936L346.954 227.928C345.778 226.703 344.876 225.163 344.228 223.339L344.226 223.333L344.223 223.325C343.592 221.457 343.291 219.255 343.291 216.743V192.08H355.04Z" fill="#1CB0A8" stroke="black" stroke-width="2"/>
<path d="M329.486 176C330.429 176 331.343 176.071 332.225 176.213L332.226 176.212C333.09 176.329 333.932 176.48 334.753 176.668L335.542 176.849L335.53 177.657L335.429 185.003L335.411 186.281L334.175 185.956C333.802 185.858 333.404 185.788 332.98 185.748C332.546 185.707 332.026 185.685 331.416 185.685C330.355 185.685 329.508 185.869 328.841 186.193L328.83 186.198C328.202 186.495 327.739 186.927 327.414 187.508C327.087 188.092 326.898 188.852 326.898 189.83V192.08H334.21V200.985H326.898V230.708H315.081V200.985H309.631V192.08H315.081V189.83C315.081 186.927 315.648 184.409 316.838 182.326L316.84 182.323L317.071 181.938C318.258 180.037 319.874 178.583 321.904 177.591C324.077 176.517 326.615 176 329.486 176Z" fill="#1CB0A8" stroke="black" stroke-width="2"/>
<path d="M303.055 179.419V189.374H287.89V230.708H275.768V189.374H260.839V179.419H303.055Z" fill="#1CB0A8" stroke="black" stroke-width="2"/>
<path d="M233.595 178.742C237.349 178.742 240.674 179.419 243.543 180.806C246.395 182.184 248.639 184.091 250.238 186.535L250.534 187C251.964 189.342 252.673 191.987 252.673 194.908V195.908H240.585V194.908C240.585 193.607 240.311 192.517 239.799 191.606L239.787 191.585C239.304 190.676 238.558 189.945 237.502 189.397L237.495 189.394C236.484 188.861 235.146 188.562 233.426 188.562C231.762 188.562 230.449 188.819 229.445 189.282L229.437 189.286L229.43 189.289C228.4 189.745 227.686 190.341 227.223 191.052L227.217 191.061C226.745 191.77 226.505 192.568 226.505 193.486C226.505 194.146 226.662 194.719 226.966 195.228C227.308 195.765 227.834 196.304 228.585 196.832C229.348 197.369 230.31 197.889 231.482 198.389C232.661 198.891 234.037 199.387 235.612 199.875L236.62 200.189C238.936 200.935 241.011 201.763 242.841 202.678L243.62 203.077C245.405 204.026 246.941 205.084 248.218 206.257C249.691 207.608 250.814 209.154 251.573 210.892C252.336 212.64 252.707 214.595 252.707 216.742C252.707 219.018 252.262 221.092 251.35 222.939C250.442 224.78 249.13 226.336 247.428 227.599C245.736 228.857 243.736 229.797 241.447 230.434C239.156 231.072 236.615 231.385 233.833 231.385C231.308 231.385 228.817 231.057 226.364 230.403L226.356 230.401C223.888 229.719 221.632 228.693 219.597 227.321L219.592 227.318C217.547 225.923 215.908 224.138 214.682 221.974C213.431 219.767 212.826 217.187 212.826 214.271V213.271H225.015V214.271C225.015 215.708 225.238 216.859 225.639 217.757C226.049 218.672 226.61 219.39 227.32 219.934L227.613 220.14C228.311 220.602 229.127 220.954 230.072 221.186L230.502 221.282C231.518 221.491 232.628 221.599 233.833 221.599C235.509 221.598 236.803 221.36 237.762 220.938L237.769 220.935L238.13 220.767C238.935 220.36 239.492 219.851 239.853 219.265L239.857 219.257L239.863 219.25C240.318 218.54 240.55 217.736 240.55 216.81C240.55 216.033 240.431 215.368 240.212 214.802L240.205 214.784L240.199 214.766C240.02 214.246 239.668 213.736 239.08 213.243L239.066 213.231C238.463 212.706 237.573 212.155 236.356 211.59C235.146 211.028 233.555 210.433 231.569 209.808L231.561 209.807C229.295 209.074 227.138 208.249 225.094 207.33L225.091 207.328C223.043 206.397 221.213 205.308 219.609 204.058L219.603 204.053L219.596 204.048C217.989 202.752 216.706 201.243 215.759 199.519L215.754 199.51C214.806 197.74 214.349 195.71 214.349 193.452C214.349 191.246 214.836 189.219 215.824 187.391C216.8 185.562 218.165 184.007 219.902 182.728C221.632 181.432 223.658 180.447 225.966 179.765H225.968L226.409 179.64C228.625 179.038 231.022 178.742 233.595 178.742Z" fill="#1CB0A8" stroke="black" stroke-width="2"/>
<path d="M204.694 179.419V189.374H181.809V199.493H201.308V209.212H181.809V220.786H204.727V230.708H169.654V179.419H204.694Z" fill="#1CB0A8" stroke="black" stroke-width="2"/>
<path d="M131.155 202.54H138.449C140.12 202.54 141.423 202.243 142.41 201.712C143.416 201.17 144.148 200.432 144.638 199.49L144.641 199.484L144.645 199.477C145.163 198.516 145.438 197.375 145.438 196.025C145.438 194.568 145.168 193.365 144.667 192.383C144.18 191.428 143.445 190.697 142.43 190.18C141.414 189.663 140.081 189.374 138.382 189.374H131.155V202.54ZM159.422 230.708H146.944L146.665 230.163L137.609 212.461H131.155V230.708H119V179.419H138.382C142.245 179.419 145.62 179.997 148.479 181.188H148.479C151.373 182.383 153.638 184.173 155.228 186.569C156.824 188.977 157.594 191.9 157.594 195.28C157.594 198.03 157.124 200.45 156.145 202.509L156.146 202.51C155.199 204.525 153.847 206.218 152.097 207.579L152.095 207.58C151.185 208.285 150.193 208.91 149.122 209.459L159.307 228.768L159.422 228.986V230.708Z" fill="#1CB0A8" stroke="black" stroke-width="2"/>
<path d="M653.933 103C650.515 103 647.449 102.453 644.737 101.36C642.024 100.239 639.718 98.6952 637.819 96.7273C635.947 94.7594 634.509 92.4771 633.506 89.8806C632.502 87.2567 632 84.4688 632 81.5169V79.877C632 76.5152 632.475 73.4403 633.424 70.6524C634.374 67.8645 635.73 65.4456 637.493 63.3957C639.284 61.3458 641.454 59.7742 644.004 58.6809C646.554 57.5603 649.43 57 652.631 57C655.75 57 658.517 57.5193 660.932 58.5579C663.346 59.5966 665.367 61.0725 666.995 62.9857C668.65 64.899 669.898 67.1949 670.739 69.8734C671.58 72.5247 672 75.4765 672 78.7291V83.6488H637.005V75.7772H660.484V74.8752C660.484 73.2353 660.186 71.773 659.589 70.4884C659.019 69.1765 658.151 68.1378 656.985 67.3725C655.818 66.6072 654.326 66.2246 652.509 66.2246C650.962 66.2246 649.633 66.5663 648.521 67.2496C647.409 67.9329 646.5 68.8895 645.795 70.1194C645.116 71.3494 644.601 72.798 644.248 74.4652C643.923 76.1052 643.76 77.9091 643.76 79.877V81.5169C643.76 83.2935 644.004 84.9335 644.492 86.4367C645.008 87.94 645.727 89.2383 646.649 90.3316C647.599 91.4248 648.738 92.2721 650.067 92.8734C651.424 93.4747 652.956 93.7754 654.665 93.7754C656.781 93.7754 658.748 93.3654 660.566 92.5455C662.41 91.6982 663.997 90.4272 665.327 88.7326L671.023 94.9644C670.101 96.3036 668.84 97.5882 667.239 98.8182C665.666 100.048 663.767 101.059 661.542 101.852C659.318 102.617 656.781 103 653.933 103Z" fill="white"/>
<path d="M564.918 66.9637V102H553V57.8167H564.175L564.918 66.9637ZM563.268 78.3566H559.969C559.969 75.2804 560.34 72.4492 561.082 69.863C561.852 67.2495 562.966 64.99 564.423 63.0844C565.907 61.1515 567.735 59.6543 569.907 58.5926C572.079 57.5309 574.594 57 577.454 57C579.433 57 581.247 57.2995 582.897 57.8984C584.546 58.4701 585.962 59.382 587.144 60.6343C588.354 61.8593 589.289 63.4655 589.948 65.4528C590.608 67.4129 590.938 69.7677 590.938 72.5172V102H579.062V73.824C579.062 71.8094 578.787 70.2577 578.237 69.1688C577.687 68.0799 576.904 67.3176 575.887 66.882C574.897 66.4465 573.701 66.2287 572.299 66.2287C570.759 66.2287 569.412 66.5417 568.258 67.1679C567.131 67.794 566.196 68.6652 565.454 69.7813C564.711 70.8702 564.162 72.1497 563.804 73.6198C563.447 75.0898 563.268 76.6688 563.268 78.3566ZM589.825 77.0091L585.577 77.5399C585.577 74.6543 585.935 71.9728 586.649 69.4955C587.392 67.0181 588.478 64.8403 589.907 62.9619C591.364 61.0835 593.165 59.627 595.309 58.5926C597.454 57.5309 599.928 57 602.732 57C604.876 57 606.828 57.3131 608.588 57.9392C610.347 58.5381 611.845 59.5045 613.082 60.8385C614.347 62.1452 615.309 63.8603 615.969 65.9837C616.656 68.1071 617 70.7069 617 73.7831V102H605.082V73.7831C605.082 71.7414 604.808 70.1897 604.258 69.1279C603.735 68.039 602.966 67.2904 601.948 66.882C600.959 66.4465 599.777 66.2287 598.402 66.2287C596.973 66.2287 595.722 66.5145 594.649 67.0862C593.577 67.6307 592.684 68.3929 591.969 69.373C591.254 70.353 590.718 71.4964 590.361 72.8031C590.003 74.0826 589.825 75.4846 589.825 77.0091Z" fill="white"/>
<path d="M521 96C521 94.2933 521.63 92.8667 522.89 91.72C524.178 90.5733 525.881 90 528 90C530.119 90 531.808 90.5733 533.067 91.72C534.356 92.8667 535 94.2933 535 96C535 97.7067 534.356 99.1333 533.067 100.28C531.808 101.427 530.119 102 528 102C525.881 102 524.178 101.427 522.89 100.28C521.63 99.1333 521 97.7067 521 96Z" fill="white"/>
<path d="M493.287 83.5312C493.287 87.8125 492.287 91.4219 490.287 94.3594C488.287 97.2656 485.537 99.4688 482.037 100.969C478.568 102.438 474.631 103.172 470.224 103.172C465.818 103.172 461.865 102.438 458.365 100.969C454.865 99.4688 452.099 97.2656 450.068 94.3594C448.037 91.4219 447.021 87.8125 447.021 83.5312C447.021 80.6562 447.599 78.0625 448.756 75.75C449.912 73.4062 451.521 71.4062 453.584 69.75C455.677 68.0625 458.131 66.7812 460.943 65.9062C463.756 65 466.818 64.5469 470.131 64.5469C474.568 64.5469 478.537 65.3281 482.037 66.8906C485.537 68.4531 488.287 70.6562 490.287 73.5C492.287 76.3438 493.287 79.6875 493.287 83.5312ZM479.693 82.6406C479.693 80.5469 479.287 78.75 478.474 77.25C477.693 75.7188 476.584 74.5469 475.146 73.7344C473.709 72.9219 472.037 72.5156 470.131 72.5156C468.224 72.5156 466.552 72.9219 465.115 73.7344C463.677 74.5469 462.552 75.7188 461.74 77.25C460.959 78.75 460.568 80.5469 460.568 82.6406C460.568 84.7031 460.959 86.4844 461.74 87.9844C462.552 89.4844 463.677 90.6406 465.115 91.4531C466.584 92.2344 468.287 92.625 470.224 92.625C472.162 92.625 473.834 92.2344 475.24 91.4531C476.677 90.6406 477.771 89.4844 478.521 87.9844C479.302 86.4844 479.693 84.7031 479.693 82.6406ZM491.834 52.0781C491.834 55.5469 490.912 58.625 489.068 61.3125C487.224 63.9688 484.662 66.0469 481.381 67.5469C478.131 69.0469 474.412 69.7969 470.224 69.7969C466.006 69.7969 462.256 69.0469 458.974 67.5469C455.693 66.0469 453.131 63.9688 451.287 61.3125C449.443 58.625 448.521 55.5469 448.521 52.0781C448.521 47.9531 449.443 44.4844 451.287 41.6719C453.162 38.8281 455.724 36.6719 458.974 35.2031C462.256 33.7344 465.974 33 470.131 33C474.349 33 478.084 33.7344 481.334 35.2031C484.615 36.6719 487.177 38.8281 489.021 41.6719C490.896 44.4844 491.834 47.9531 491.834 52.0781ZM478.334 52.6875C478.334 50.8438 478.006 49.25 477.349 47.9062C476.693 46.5312 475.756 45.4688 474.537 44.7188C473.349 43.9688 471.881 43.5938 470.131 43.5938C468.443 43.5938 466.99 43.9531 465.771 44.6719C464.584 45.3906 463.662 46.4375 463.006 47.8125C462.381 49.1562 462.068 50.7812 462.068 52.6875C462.068 54.5312 462.381 56.1562 463.006 57.5625C463.662 58.9375 464.599 60.0156 465.818 60.7969C467.037 61.5781 468.506 61.9688 470.224 61.9688C471.943 61.9688 473.396 61.5781 474.584 60.7969C475.802 60.0156 476.724 58.9375 477.349 57.5625C478.006 56.1562 478.334 54.5312 478.334 52.6875Z" fill="white"/>
<path d="M360.601 62.25H367.819C370.132 62.25 372.038 61.8594 373.538 61.0781C375.038 60.2656 376.147 59.1406 376.866 57.7031C377.616 56.2344 377.991 54.5312 377.991 52.5938C377.991 50.8438 377.647 49.2969 376.96 47.9531C376.304 46.5781 375.288 45.5156 373.913 44.7656C372.538 43.9844 370.804 43.5938 368.71 43.5938C367.054 43.5938 365.522 43.9219 364.116 44.5781C362.71 45.2344 361.585 46.1562 360.741 47.3438C359.897 48.5312 359.476 49.9688 359.476 51.6562H345.929C345.929 47.9062 346.929 44.6406 348.929 41.8594C350.96 39.0781 353.679 36.9062 357.085 35.3438C360.491 33.7812 364.241 33 368.335 33C372.96 33 377.007 33.75 380.476 35.25C383.944 36.7188 386.647 38.8906 388.585 41.7656C390.522 44.6406 391.491 48.2031 391.491 52.4531C391.491 54.6094 390.991 56.7031 389.991 58.7344C388.991 60.7344 387.554 62.5469 385.679 64.1719C383.835 65.7656 381.585 67.0469 378.929 68.0156C376.272 68.9531 373.288 69.4219 369.976 69.4219H360.601V62.25ZM360.601 72.5156V65.5312H369.976C373.694 65.5312 376.96 65.9531 379.772 66.7969C382.585 67.6406 384.944 68.8594 386.851 70.4531C388.757 72.0156 390.194 73.875 391.163 76.0312C392.132 78.1562 392.616 80.5156 392.616 83.1094C392.616 86.2969 392.007 89.1406 390.788 91.6406C389.569 94.1094 387.851 96.2031 385.632 97.9219C383.444 99.6406 380.882 100.953 377.944 101.859C375.007 102.734 371.804 103.172 368.335 103.172C365.46 103.172 362.632 102.781 359.851 102C357.101 101.188 354.601 99.9844 352.351 98.3906C350.132 96.7656 348.351 94.7344 347.007 92.2969C345.694 89.8281 345.038 86.9062 345.038 83.5312H358.585C358.585 85.2812 359.022 86.8438 359.897 88.2188C360.772 89.5938 361.976 90.6719 363.507 91.4531C365.069 92.2344 366.804 92.625 368.71 92.625C370.866 92.625 372.71 92.2344 374.241 91.4531C375.804 90.6406 376.991 89.5156 377.804 88.0781C378.647 86.6094 379.069 84.9062 379.069 82.9688C379.069 80.4688 378.616 78.4688 377.71 76.9688C376.804 75.4375 375.507 74.3125 373.819 73.5938C372.132 72.875 370.132 72.5156 367.819 72.5156H360.601Z" fill="white"/>
<path d="M294.395 36V102H282V36H294.395ZM330.422 36L306.583 68.592L292.825 84.8201L290.594 71.9464L299.89 57.9849L315.218 36H330.422ZM316.333 102L298.609 71.4931L307.781 63.0618L331 102H316.333Z" fill="white"/>
<path d="M167.395 36V102H155V36H167.395ZM203.422 36L179.583 68.592L165.825 84.8201L163.594 71.9464L172.89 57.9849L188.218 36H203.422ZM189.333 102L171.609 71.4931L180.781 63.0618L204 102H189.333Z" fill="white"/>
<path d="M249.668 84.7727C249.668 83.5909 249.503 82.5303 249.174 81.5909C248.873 80.6212 248.297 79.7424 247.448 78.9545C246.598 78.1364 245.406 77.3333 243.871 76.5455C242.337 75.7576 240.35 74.9394 237.911 74.0909C235.197 73.1212 232.621 72.0303 230.182 70.8182C227.771 69.6061 225.633 68.197 223.769 66.5909C221.933 64.9545 220.481 63.0606 219.412 60.9091C218.371 58.7576 217.85 56.2576 217.85 53.4091C217.85 50.6515 218.398 48.1515 219.494 45.9091C220.59 43.6364 222.125 41.697 224.098 40.0909C226.071 38.4545 228.401 37.197 231.087 36.3182C233.8 35.4394 236.773 35 240.007 35C244.419 35 248.27 35.8788 251.559 37.6364C254.847 39.3939 257.396 41.803 259.205 44.8636C261.041 47.9242 261.959 51.4242 261.959 55.3636H249.709C249.709 53.4242 249.339 51.7273 248.599 50.2727C247.886 48.7879 246.79 47.6212 245.31 46.7727C243.858 45.9242 242.021 45.5 239.802 45.5C237.664 45.5 235.883 45.8636 234.458 46.5909C233.032 47.2879 231.964 48.2424 231.251 49.4545C230.539 50.6364 230.182 51.9697 230.182 53.4545C230.182 54.5758 230.429 55.5909 230.922 56.5C231.443 57.4091 232.21 58.2576 233.224 59.0455C234.238 59.8333 235.485 60.5758 236.965 61.2727C238.445 61.9697 240.158 62.6515 242.104 63.3182C245.365 64.4091 248.229 65.6364 250.695 67C253.189 68.3636 255.272 69.8939 256.944 71.5909C258.615 73.2879 259.876 75.2121 260.726 77.3636C261.575 79.5152 262 81.9545 262 84.6818C262 87.5606 261.493 90.1364 260.479 92.4091C259.465 94.6818 257.999 96.6061 256.08 98.1818C254.162 99.7576 251.874 100.955 249.215 101.773C246.557 102.591 243.584 103 240.295 103C237.335 103 234.416 102.576 231.539 101.727C228.661 100.848 226.044 99.5303 223.687 97.7727C221.358 96.0152 219.494 93.7727 218.097 91.0455C216.699 88.3182 216 85.0909 216 81.3636H228.374C228.374 83.4242 228.661 85.1667 229.237 86.5909C229.812 88.0152 230.621 89.1667 231.662 90.0455C232.731 90.9242 233.992 91.5606 235.444 91.9545C236.924 92.3485 238.541 92.5455 240.295 92.5455C242.433 92.5455 244.186 92.2121 245.557 91.5455C246.954 90.8788 247.982 89.9545 248.64 88.7727C249.325 87.5909 249.668 86.2576 249.668 84.7727Z" fill="white"/>
<path d="M50.1057 16.1134L65.0458 11.9302L87.157 14.9182L95.0454 34.8321L90.2268 50.3863L50.1057 28.663L50.1057 16.1134Z" fill="#837445"/>
<path d="M39.9465 21.6218L69.1853 21.6218L91.3361 46.4657L85.9017 67.5736L22.9904 34.8333L39.9465 21.6218Z" fill="#E3D8A1"/>
<path d="M48.4918 64.2736L65.6803 86.0616L68.6305 93.9259C68.5429 94.3484 68.4556 94.7725 68.3658 95.1974C53.3259 128.232 49.0286 126.871 21.0973 126.871C2.83452 103.677 8.74317 125.422 2.29749 83.9532C4.1617 75.1241 7.03585 66.4497 10.6754 58.6212L17.8746 57.549L48.4918 64.2736Z" fill="#EBCFC4"/>
<path d="M44.7273 62.1288L57.7435 64.5652L55.3619 85.5272L36.3609 83.3685L44.7273 62.1288Z" fill="#CC9A87"/>
<path d="M35.2118 25.7387L65.8035 31.4536L90.3303 60.2855L86.0712 77.4896L71.4571 97.834L65.8035 77.4896L46.0319 64.6204L25.6041 59.1407L13.652 58.5431L6.4807 64.6204L9.46873 43.0054L22.0184 31.4536L35.2118 25.7387Z" fill="#48579D"/>
<path d="M66.4206 81.0476L69.3708 89.7351C69.2832 90.202 69.1959 90.6709 69.1061 91.1404C56.5675 121.564 51.4956 125.576 33.9704 126.07L53.3366 62.7263L66.4206 81.0476Z" fill="#CC9A87"/>
<ellipse cx="62" cy="96.8223" rx="15" ry="11.5" fill="#CC9A87"/>
<path d="M90.1448 60.2657L85.8284 77.4698L71.0169 97.8136L65.2874 77.4698L49.5081 67.3361L70.6263 37.6271L90.1448 60.2657Z" fill="#121F5B"/>
<ellipse cx="69" cy="113.322" rx="3" ry="4" fill="white"/>
<ellipse cx="35.8404" cy="84.9466" rx="2.98801" ry="4.18322" transform="rotate(91.5074 35.8404 84.9466)" fill="black"/>
<ellipse cx="35.8404" cy="84.9466" rx="2.98801" ry="4.18322" transform="rotate(91.5074 35.8404 84.9466)" fill="black"/>
<path d="M8.32403 75.8796C11.2943 75.9676 13.6802 77.0106 13.6522 78.2087C13.645 78.5102 13.4847 78.7919 13.2029 79.0446C12.38 78.2639 10.5109 77.6807 8.32403 77.6159C6.10136 77.5501 4.18011 78.0363 3.34259 78.7878C3.04889 78.5086 2.88795 78.2047 2.89532 77.8894C2.92353 76.6914 5.35406 75.7916 8.32403 75.8796Z" fill="black"/>
<path d="M8.32403 75.8796C11.2943 75.9676 13.6802 77.0106 13.6522 78.2087C13.645 78.5102 13.4847 78.7919 13.2029 79.0446C12.38 78.2639 10.5109 77.6807 8.32403 77.6159C6.10136 77.5501 4.18011 78.0363 3.34259 78.7878C3.04889 78.5086 2.88795 78.2047 2.89532 77.8894C2.92353 76.6914 5.35406 75.7916 8.32403 75.8796Z" fill="black"/>
<path d="M37.7553 79.9805L22.0184 81.849L22.0978 77.2264L25.604 74.0808L37.7553 79.9805Z" fill="#CC9A87"/>
<path d="M34.5024 79.9851C38.9891 81.0331 42.3883 82.8303 42.0946 83.9988C42.0205 84.2928 41.7193 84.5179 41.2393 84.6751C40.1548 83.6413 37.4415 82.4634 34.1381 81.6918C30.7801 80.9075 27.7645 80.7644 26.3367 81.2322C25.9491 80.8624 25.769 80.5117 25.8462 80.2039C26.1399 79.0353 30.0157 78.9372 34.5024 79.9851Z" fill="black"/>
<path d="M34.5024 79.9851C38.9891 81.0331 42.3883 82.8303 42.0946 83.9988C42.0205 84.2928 41.7193 84.5179 41.2393 84.6751C40.1548 83.6413 37.4415 82.4634 34.1381 81.6918C30.7801 80.9075 27.7645 80.7644 26.3367 81.2322C25.9491 80.8624 25.769 80.5117 25.8462 80.2039C26.1399 79.0353 30.0157 78.9372 34.5024 79.9851Z" fill="black"/>
<ellipse cx="10.8983" cy="80.4822" rx="2.98801" ry="2.75366" transform="rotate(99.808 10.8983 80.4822)" fill="black"/>
<ellipse cx="10.8983" cy="80.4822" rx="2.98801" ry="2.75366" transform="rotate(99.808 10.8983 80.4822)" fill="black"/>
<path d="M84.169 39.8539L91.2315 39.8539L119.871 128.832L91.2315 128.832L84.169 39.8539Z" fill="#E3D8A1"/>
<path d="M22.7778 76.3223L24 102.322H16.0556L13 100.55L22.7778 76.3223Z" fill="#CC9A87"/>
<rect x="413" y="33" width="13" height="70" fill="white"/>
</svg>
